<?xml version="1.0" encoding="utf-8"?>
<!-- Generator: Adobe Illustrator 22.0.0, SVG Export Plug-In . SVG Version: 6.00 Build 0)  -->
<svg version="1.1" id="Layer_1" xmlns="http://www.w3.org/2000/svg" xmlns:xlink="http://www.w3.org/1999/xlink" x="0px" y="0px"
	 viewBox="0 0 237.3 237.3" style="enable-background:new 0 0 237.3 237.3;" xml:space="preserve">
<style type="text/css">
	.st0{fill:#FFFFFF;}
	.st1{fill:#95CF00;}
	.st2{font-family:'MyriadPro-Regular';}
	.st3{font-size:12px;}
	.st4{font-size:7px;}
</style>
<g>
	<path class="st0" d="M8.5,229.8c-1.7,0-3-1.3-3-3V16.3C5.5,10,10.7,4.8,17,4.8h202c6.3,0,11.5,5.2,11.5,11.5v210.5c0,1.7-1.3,3-3,3
		H8.5z"/>
	<path class="st1" d="M219,5.3c6.1,0,11,4.9,11,11v210.5c0,1.4-1.1,2.5-2.5,2.5H8.5c-1.4,0-2.5-1.1-2.5-2.5V16.3c0-6.1,4.9-11,11-11
		H219 M219,4.3H17c-6.6,0-12,5.4-12,12v210.5c0,1.9,1.6,3.5,3.5,3.5h219c1.9,0,3.5-1.6,3.5-3.5V16.3C231,9.7,225.6,4.3,219,4.3
		L219,4.3z"/>
</g>
<g>
	<path class="st1" d="M5.5,39.8V16.6c0-6.5,5.3-11.8,11.8-11.8H219c6.3,0,11.5,5.2,11.5,11.5v23.5H5.5z"/>
	<path class="st1" d="M219,5.3c6.1,0,11,4.9,11,11v23H6V16.6c0-6.2,5-11.3,11.3-11.3H219 M219,4.3H17.3C10.5,4.3,5,9.8,5,16.6v23.7
		h226v-24C231,9.7,225.6,4.3,219,4.3L219,4.3z"/>
</g>
<text transform="matrix(1 0 0 1 43.6665 26.3333)" class="st2 st3">Heritage Cooking Application</text>
<text transform="matrix(1 0 0 1 38.1753 86.7332)"><tspan x="0" y="0" class="st2 st3">Application which explains how </tspan><tspan x="-22.6" y="14.4" class="st2 st3">cooking is done for a certain filipino dish. </tspan></text>
<text transform="matrix(1 0 0 1 11.0181 173.3333)" class="st2 st4">https://github.com/kimaurellano/Heritage-Cooking-Application-Android</text>
<text transform="matrix(1 0 0 1 18.5859 160.8333)" class="st2 st4">LINKS</text>
</svg>
