<?xml version="1.0" encoding="utf-8"?>
<!-- Generator: Adobe Illustrator 22.0.0, SVG Export Plug-In . SVG Version: 6.00 Build 0)  -->
<svg version="1.1" id="Layer_1" xmlns="http://www.w3.org/2000/svg" xmlns:xlink="http://www.w3.org/1999/xlink" x="0px" y="0px"
	 viewBox="0 0 71.8 72.3" style="enable-background:new 0 0 71.8 72.3;" xml:space="preserve">
<style type="text/css">
	.st0{fill:#F0FFDF;}
	.st1{fill:#95CF00;}
</style>
<title>Android</title>
<desc>Created with Sketch.</desc>
<circle id="Shape" class="st0" cx="36" cy="36.8" r="33.6"/>
<g id="Page-1">
	<g id="Social-Icons---Isolated" transform="translate(-391.000000, -1287.000000)">
		<path id="Android" class="st1" d="M432.7,1308.9c-0.8,0-1.4-0.6-1.4-1.4c0-0.8,0.6-1.4,1.4-1.4c0.8,0,1.4,0.6,1.4,1.4
			C434.2,1308.3,433.5,1308.9,432.7,1308.9L432.7,1308.9z M421.3,1308.9c-0.8,0-1.4-0.6-1.4-1.4c0-0.8,0.6-1.4,1.4-1.4
			c0.8,0,1.4,0.6,1.4,1.4C422.7,1308.3,422.1,1308.9,421.3,1308.9L421.3,1308.9z M433.6,1303.4c4,1.8,6.8,5.3,6.8,9.3h-26.7
			c0-4,2.7-7.5,6.8-9.3l-0.5-0.8l-0.5-0.8l-1.2-1.7c-0.1-0.2-0.1-0.5,0.1-0.6c0.2-0.1,0.5-0.1,0.7,0.1l1.3,1.9l0.5,0.8l0.5,0.8
			c1.7-0.7,3.7-1,5.7-1c2,0,4,0.4,5.7,1l0.5-0.8l1.8-2.6c0.1-0.2,0.4-0.3,0.7-0.1c0.2,0.1,0.3,0.4,0.1,0.6l-1.2,1.7l-0.5,0.8
			L433.6,1303.4z M413.8,1314.5h26.5v20.4c0,1.6-1.4,2.9-3,2.9h-2.2c0.1,0.2,0.1,0.5,0.1,0.8v5.9c0,1.5-1.3,2.8-2.9,2.8
			c-1.6,0-2.9-1.2-2.9-2.8v-5.9c0-0.3,0-0.5,0.1-0.8h-5.3c0.1,0.2,0.1,0.5,0.1,0.8v5.9c0,1.5-1.3,2.8-2.9,2.8
			c-1.6,0-2.9-1.2-2.9-2.8v-5.9c0-0.3,0-0.5,0.1-0.8h-2.2c-1.7,0-3-1.3-3-2.9v-20.4H413.8z M408.9,1314.5c1.6,0,2.9,1.2,2.9,2.8
			v11.9c0,1.5-1.3,2.8-2.9,2.8c-1.6,0-2.9-1.2-2.9-2.8v-11.9C406,1315.8,407.3,1314.5,408.9,1314.5z M445.1,1314.5
			c1.6,0,2.9,1.2,2.9,2.8v11.9c0,1.5-1.3,2.8-2.9,2.8c-1.6,0-2.9-1.2-2.9-2.8v-11.9C442.3,1315.8,443.6,1314.5,445.1,1314.5z"/>
	</g>
</g>
</svg>
