<?xml version="1.0" encoding="utf-8"?>
<!-- Generator: Adobe Illustrator 22.0.0, SVG Export Plug-In . SVG Version: 6.00 Build 0)  -->
<svg version="1.1" id="Layer_1" xmlns="http://www.w3.org/2000/svg" xmlns:xlink="http://www.w3.org/1999/xlink" x="0px" y="0px"
	 viewBox="0 0 387 381" style="enable-background:new 0 0 387 381;" xml:space="preserve">
<style type="text/css">
	.st0{fill:#DFFDFF;}
	.st1{fill:#00979C;}
</style>
<circle class="st0" cx="194.8" cy="193.1" r="175.8"/>
<g>
	<path class="st1" d="M80,224.4l-13.1,42.8h10.3l2.4-8h12.8l2.3,8H106l-13.1-42.8H80L80,224.4z M82.2,250.6l3.9-13.3l3.9,13.3H82.2
		L82.2,250.6z"/>
	<path class="st1" d="M130.6,247.7c-0.2-0.2-0.3-0.3-0.5-0.5c0.3-0.1,0.6-0.3,0.9-0.4c1.3-0.6,2.3-1.3,3.3-2.3
		c0.9-0.9,1.6-2.1,2.1-3.4c0.5-1.3,0.8-2.8,0.8-4.4c0-2.2-0.4-4.2-1.2-5.8c-0.8-1.6-2-2.9-3.5-3.9c-1.4-1-3.2-1.7-5.2-2.1
		c-1.9-0.4-4.1-0.6-6.5-0.6h-13.4v42.8h10.3v-16.7h0.3c1.1,0,2.1,0.2,2.9,0.8c0.8,0.5,1.4,1.3,1.9,2.3l6.2,13.7h12l-7.5-15.3
		C132.5,250.1,131.6,248.7,130.6,247.7L130.6,247.7z M126.2,239.5c-0.3,0.6-0.7,1-1.3,1.4c-0.6,0.4-1.3,0.7-2.1,0.9
		c-0.9,0.2-1.9,0.3-3,0.3h-2v-9h2.3c2.4,0,4.1,0.4,5.2,1.1c1,0.6,1.4,1.7,1.4,3.3C126.6,238.3,126.5,238.9,126.2,239.5L126.2,239.5z
		"/>
	<path class="st1" d="M171,229.5c-1.7-1.7-3.9-3-6.5-3.9c-2.5-0.8-5.5-1.2-8.8-1.2h-13.6v42.8H154c3.8,0,7.2-0.5,9.9-1.5
		c2.8-1,5.2-2.5,7-4.5c1.8-1.9,3.2-4.3,4-7c0.8-2.7,1.3-5.7,1.3-8.9c0-3.5-0.4-6.6-1.3-9.2C174.1,233.4,172.8,231.2,171,229.5
		L171,229.5z M162.6,255.5c-1.8,2-4.4,2.9-7.9,2.9h-2.3v-25.3h2.8c2,0,3.6,0.3,4.9,0.8c1.3,0.5,2.2,1.3,3,2.3c0.8,1,1.3,2.4,1.6,3.9
		c0.3,1.6,0.5,3.5,0.5,5.6C165.3,250.3,164.4,253.5,162.6,255.5L162.6,255.5z"/>
	<path class="st1" d="M200.9,251.7c0,1.5-0.1,2.7-0.4,3.7c-0.3,0.9-0.6,1.7-1.1,2.3c-0.5,0.6-1,0.9-1.7,1.2
		c-0.8,0.3-1.7,0.4-2.9,0.4c-1.2,0-2.2-0.2-3-0.5c-0.7-0.3-1.3-0.7-1.8-1.3c-0.5-0.6-0.8-1.3-1-2.2c-0.2-1-0.3-2.1-0.3-3.3v-27.6
		h-10.3v28c0,2.3,0.3,4.4,0.9,6.3c0.6,1.9,1.6,3.6,2.9,5c1.3,1.4,3.1,2.4,5.1,3.1c2,0.7,4.5,1.1,7.3,1.1c2.5,0,4.8-0.4,6.9-1.1
		c2.1-0.7,3.9-1.8,5.3-3.2c1.5-1.4,2.6-3.2,3.4-5.3c0.8-2.1,1.1-4.5,1.1-7.2v-26.8h-10.3V251.7"/>
	<path class="st1" d="M216.5,233h9.2v25.5h-9.2v8.7h28.8v-8.7h-9.2V233h9.2v-8.6h-28.8V233"/>
	<path class="st1" d="M273.9,248.8l-11.5-24.4h-11.6v42.8h9.6v-24.9l11.5,24.9h11.6v-42.8h-9.6V248.8"/>
	<path class="st1" d="M316.7,229.5c-3-3.8-7.5-5.7-13.4-5.7c-2.5,0-4.9,0.4-7.1,1.3c-2.2,0.9-4.2,2.3-5.9,4.1c-1.7,1.8-3,4.2-3.9,7
		c-0.9,2.8-1.4,6.1-1.4,9.9c0,7,1.5,12.4,4.4,16.2c3,3.8,7.5,5.8,13.4,5.8c2.5,0,4.9-0.4,7.1-1.3c2.2-0.9,4.2-2.3,5.9-4.1
		c1.7-1.8,3-4.2,3.9-7c0.9-2.8,1.4-6.1,1.4-9.9C321.2,238.6,319.7,233.2,316.7,229.5L316.7,229.5z M310,251.7
		c-0.3,1.6-0.8,2.9-1.4,4c-0.6,1-1.3,1.7-2.2,2.2c-0.9,0.5-2,0.8-3.3,0.8c-2.6,0-4.4-1-5.5-2.9c-1.2-2.2-1.8-5.6-1.8-10.1
		c0-2.1,0.2-4.1,0.5-5.7c0.3-1.6,0.8-2.9,1.4-4c0.6-1,1.3-1.7,2.2-2.2c0.9-0.5,2-0.8,3.3-0.8c2.6,0,4.4,1,5.5,2.9
		c1.2,2.2,1.8,5.6,1.8,10.1C310.4,248.2,310.3,250.1,310,251.7L310,251.7z"/>
	<path class="st1" d="M306.3,99.7h1.8v4.8h1.3v-4.8h1.8v-1.2h-5V99.7"/>
	<path class="st1" d="M315.8,98.6l-1.2,4.1l-1.3-4.1h-1.7v6h1.2v-3.8l1.2,3.8h1.1l1.1-3.7v3.7h1.2v-6H315.8"/>
	<path class="st1" d="M256.3,214.3c-16.3,0-30.2-5.5-42.5-16.7c-7.6-6.9-13.8-15.4-19.6-24.3c-5.7,8.8-12,17.3-19.6,24.3
		c-13.2,12.1-28.3,17.5-46.1,16.6c-34.1-0.1-61.8-27.1-61.8-60.1C66.7,121,94.6,94,128.8,94c18.7,0,34.5,6.2,48.2,18.9
		c6.6,6.1,12.1,13.2,17.2,20.7c5.1-7.4,10.6-14.5,17.2-20.7c13.7-12.8,29.5-18.9,48.2-18.9c34.2,0,62.1,27,62.1,60.1
		c0,33.1-27.7,60-61.8,60.1C258.7,214.3,257.5,214.3,256.3,214.3L256.3,214.3z M206.7,153.3c6.8,11,13.4,21.3,21.4,28.6
		c9.1,8.3,18.6,11.7,31,11.1l0.6,0c22.5,0,40.9-17.5,40.9-38.9c0-21.4-18.3-38.9-40.9-38.9c-13.3,0-24,4.2-33.8,13.3
		C218.6,135.2,212.6,143.9,206.7,153.3L206.7,153.3z M128.8,115.2c-22.5,0-40.9,17.5-40.9,38.9c0,21.4,18.3,38.9,40.9,38.9l0.6,0
		c12.4,0.7,21.9-2.8,31-11.1c8-7.4,14.6-17.6,21.4-28.6c-5.9-9.4-11.9-18.1-19.2-24.8C152.9,119.4,142.1,115.2,128.8,115.2
		L128.8,115.2z"/>
	<path class="st1" d="M262.5,146.4v-11.5h-12v11.5H239v11.9h11.5v11.6h12v-11.6H274v-11.9H262.5"/>
	<path class="st1" d="M111.6,146.3h37.8v12.3h-37.8V146.3z"/>
</g>
</svg>
