<?xml version="1.0" encoding="utf-8"?>
<!-- Generator: Adobe Illustrator 22.0.0, SVG Export Plug-In . SVG Version: 6.00 Build 0)  -->
<svg version="1.1" id="Layer_1" xmlns="http://www.w3.org/2000/svg" xmlns:xlink="http://www.w3.org/1999/xlink" x="0px" y="0px"
	 viewBox="0 0 60 60" style="enable-background:new 0 0 60 60;" xml:space="preserve">
<title>github [#142]</title>
<desc>Created with Sketch.</desc>
<g id="Page-1">
	<g id="Dribbble-Light-Preview" transform="translate(-140.000000, -7559.000000)">
		<g id="icons" transform="translate(56.000000, 160.000000)">
			<path id="github-_x5B__x23_142_x5D_" d="M114.3,7402.1c14.6,0,26.4,12.2,26.4,27.2c0,12-7.5,22.2-18,25.8
				c-1.3,0.3-1.8-0.6-1.8-1.3c0-0.9,0-3.8,0-7.5c0-2.5-0.8-4.2-1.8-5c5.9-0.7,12-3,12-13.4c0-3-1-5.4-2.7-7.3
				c0.3-0.7,1.2-3.4-0.3-7.2c0,0-2.2-0.7-7.2,2.8c-2.1-0.6-4.4-0.9-6.6-0.9c-2.2,0-4.5,0.3-6.6,0.9c-5-3.5-7.3-2.8-7.3-2.8
				c-1.4,3.7-0.5,6.5-0.3,7.2c-1.7,1.9-2.7,4.3-2.7,7.3c0,10.4,6.2,12.7,12,13.4c-0.8,0.7-1.4,1.9-1.7,3.6c-1.5,0.7-5.3,1.9-7.7-2.3
				c0,0-1.4-2.6-4-2.8c0,0-2.6,0-0.2,1.7c0,0,1.7,0.8,2.9,4c0,0,1.5,4.8,8.9,3.2c0,2.3,0,4.4,0,5.1c0,0.7-0.5,1.6-1.8,1.3
				c-10.5-3.6-18-13.8-18-25.8C87.9,7414.2,99.7,7402.1,114.3,7402.1"/>
		</g>
	</g>
</g>
</svg>
