<?xml version="1.0" encoding="utf-8"?>
<!-- Generator: Adobe Illustrator 22.0.0, SVG Export Plug-In . SVG Version: 6.00 Build 0)  -->
<svg version="1.1" id="Capa_1" xmlns="http://www.w3.org/2000/svg" xmlns:xlink="http://www.w3.org/1999/xlink" x="0px" y="0px"
	 viewBox="0 0 757.5 750" style="enable-background:new 0 0 757.5 750;" xml:space="preserve">
<style type="text/css">
	.st0{fill:#FFEFE9;}
	.st1{fill:#FF5722;}
	.st2{fill:#FAFAFA;}
</style>
<circle class="st0" cx="381" cy="370.5" r="354.5"/>
<polygon class="st1" points="157,123.7 197.8,584.5 381,635.7 564.1,584.6 605,123.7 "/>
<polygon class="st2" points="516.5,274.4 381,274.4 301.8,274.4 306.9,332.3 381,332.3 511.4,332.3 496,505.9 381,538 380.9,538 
	266,505.9 257.9,415.1 314.3,415.1 318.4,462.2 380.9,479.2 381,479.2 381,479.2 443.6,462.2 450.1,388.9 381,388.9 381,388.9 
	255.6,388.9 240.5,217.9 381,217.9 521.5,217.9 "/>
</svg>
