<?xml version="1.0" encoding="utf-8"?>
<!-- Generator: Adobe Illustrator 22.0.0, SVG Export Plug-In . SVG Version: 6.00 Build 0)  -->
<svg version="1.1" id="Layer_1" xmlns="http://www.w3.org/2000/svg" xmlns:xlink="http://www.w3.org/1999/xlink" x="0px" y="0px"
	 viewBox="0 0 619.4 613.9" style="enable-background:new 0 0 619.4 613.9;" xml:space="preserve">
<style type="text/css">
	.st0{opacity:6.000000e-02;fill:#A9A9A9;}
	.st1{fill:#A9A9A9;}
	.st2{fill:#3F90FF;}
</style>
<circle class="st0" cx="308.1" cy="304" r="282.5"/>
<path class="st1" d="M144.1,408.5h-3c-10.2,0-18.5-8.3-18.5-18.5V211c0-10.2,8.3-18.5,18.5-18.5h3c10.2,0,18.5,8.3,18.5,18.5v179
	C162.6,400.2,154.3,408.5,144.1,408.5z"/>
<path class="st2" d="M326.6,196.4l-27.4,35.1c27.6,8.6,47.6,34.7,47.6,65.5c0,37.8-30.2,68.5-67.4,68.5c-37.2,0-67.4-30.7-67.4-68.5
	c0-31.2,20.5-57.4,48.5-65.8l-27.9-35.7c-38.3,17.6-65,56.4-65,101.5c0,61.6,49.7,111.5,111,111.5s111-49.9,111-111.5
	C389.6,252.6,363.9,214.4,326.6,196.4z"/>
<path class="st1" d="M503.4,192.5h-59.3h-3h-58.8c-10.2,0-18.5,8.3-18.5,18.5v3c0,10.2,8.3,18.5,18.5,18.5h40.3V390
	c0,10.2,8.3,18.5,18.5,18.5h3c10.2,0,18.5-8.3,18.5-18.5V232.5h40.8c10.2,0,18.5-8.3,18.5-18.5v-3
	C521.9,200.8,513.6,192.5,503.4,192.5z"/>
</svg>
