<?xml version="1.0" encoding="utf-8"?>
<!-- Generator: Adobe Illustrator 22.0.0, SVG Export Plug-In . SVG Version: 6.00 Build 0)  -->
<svg version="1.1" id="Layer_1" xmlns="http://www.w3.org/2000/svg" xmlns:xlink="http://www.w3.org/1999/xlink" x="0px" y="0px"
	 viewBox="0 0 432 453" style="enable-background:new 0 0 432 453;" xml:space="preserve">
<style type="text/css">
	.st0{fill:#FFF4F4;}
	.st1{fill:#75A928;}
	.st2{fill:#BC1142;}
</style>
<circle class="st0" cx="210.8" cy="218.5" r="199.5"/>
<g>
	<path d="M151.3,55c-1.7,0.1-3.4,0.7-5.5,2.3c-4.9-1.9-9.7-2.6-14,1.3c-6.6-0.9-8.8,0.9-10.4,3c-1.5,0-10.9-1.5-15.2,5
		c-10.9-1.3-14.3,6.4-10.4,13.5c-2.2,3.4-4.5,6.8,0.7,13.4c-1.8,3.6-0.7,7.6,3.6,12.4c-1.1,5.1,1.1,8.7,5.1,11.6
		c-0.8,7,6.4,11.1,8.6,12.5c0.8,4.1,2.5,7.9,10.7,10.1c1.4,6.1,6.3,7.1,11.1,8.4c-15.8,9.2-29.3,21.3-29.2,50.9l-2.3,4.1
		c-18.1,11-34.4,46.4-8.9,75.1c1.7,9,4.5,15.5,6.9,22.6c3.7,28.8,28,42.3,34.4,43.9c9.4,7.1,19.4,13.9,32.9,18.7
		c12.7,13.1,26.5,18.1,40.4,18.1c0.2,0,28.3-5,41-18.1c13.5-4.7,23.5-11.5,32.9-18.7c6.4-1.6,30.6-15.1,34.4-43.9
		c2.5-7.2,5.3-13.6,6.9-22.6c25.5-28.8,9.2-64.1-8.9-75.2l-2.3-4.1c0.1-29.6-13.4-41.7-29.2-50.9c4.8-1.3,9.7-2.3,11.1-8.4
		c8.2-2.1,9.9-6,10.7-10.1c2.1-1.5,9.3-5.5,8.6-12.5c4-2.8,6.3-6.4,5.1-11.6c4.3-4.8,5.5-8.7,3.6-12.4c5.2-6.5,2.9-9.9,0.7-13.4
		c3.9-7.2,0.5-14.8-10.4-13.5c-4.3-6.4-13.7-5-15.2-5c-1.6-2.1-3.8-3.8-10.4-3c-4.3-3.9-9.1-3.2-14-1.3c-5.9-4.6-9.8-0.9-14.2,0.5
		c-7.1-2.3-8.7,0.9-12.2,2.2c-7.8-1.6-10.1,1.9-13.8,5.7l-4.3-0.1c-11.7,6.9-17.5,20.9-19.6,28.1c-2.1-7.2-7.9-21.3-19.6-28.1
		l-4.3,0.1c-3.7-3.8-6.1-7.3-13.8-5.7c-3.5-1.3-5.1-4.5-12.2-2.2C157.1,56.8,154.4,54.9,151.3,55L71,196"/>
	<path class="st1" d="M128,85.3c31,16,49.1,28.9,59,40c-5.1,20.3-31.5,21.2-41.1,20.6c2-0.9,3.6-2,4.2-3.7c-2.4-1.7-11-0.2-17-3.6
		c2.3-0.5,3.4-0.9,4.5-2.6c-5.7-1.8-11.8-3.4-15.4-6.4c1.9,0,3.7,0.4,6.3-1.3c-5.1-2.7-10.5-4.9-14.7-9.1c2.6-0.1,5.5,0,6.3-1
		c-4.6-2.9-8.6-6.1-11.8-9.6c3.7,0.4,5.2,0.1,6.1-0.6c-3.5-3.6-8-6.6-10.1-11.1c2.7,0.9,5.2,1.3,7-0.1c-1.2-2.7-6.3-4.3-9.2-10.6
		c2.9,0.3,5.9,0.6,6.5,0c-1.3-5.4-3.6-8.5-5.9-11.6c6.1-0.1,15.5,0,15-0.5l-3.8-3.9c6-1.6,12.1,0.3,16.6,1.7c2-1.6,0-3.6-2.5-5.6
		c5.1,0.7,9.7,1.9,13.9,3.5c2.2-2-1.4-4-3.2-6c7.9,1.5,11.2,3.6,14.5,5.7c2.4-2.3,0.1-4.3-1.5-6.3c5.9,2.2,9,5,12.2,7.8
		c1.1-1.5,2.8-2.6,0.7-6.1c4.2,2.4,7.4,5.3,9.7,8.5c2.6-1.7,1.6-3.9,1.6-6c4.4,3.6,7.2,7.4,10.6,11.1c0.7-0.5,1.3-2.2,1.8-4.9
		c10.5,10.1,25.2,35.7,3.8,45.8C173.9,104.5,152.1,93.5,128,85.3L128,85.3"/>
	<path class="st1" d="M292.7,85.3c-31,16-49.1,28.9-59,40c5.1,20.3,31.5,21.2,41.1,20.6c-2-0.9-3.6-2-4.2-3.7c2.4-1.7,11-0.2,17-3.6
		c-2.3-0.5-3.4-0.9-4.5-2.6c5.7-1.8,11.8-3.4,15.4-6.4c-1.9,0-3.7,0.4-6.3-1.3c5.1-2.7,10.5-4.9,14.7-9.1c-2.6-0.1-5.5,0-6.3-1
		c4.6-2.9,8.6-6.1,11.8-9.6c-3.7,0.4-5.2,0.1-6.1-0.6c3.5-3.6,8-6.6,10.1-11.1c-2.7,0.9-5.2,1.3-7-0.1c1.2-2.7,6.3-4.3,9.2-10.6
		c-2.9,0.3-5.9,0.6-6.5,0c1.3-5.4,3.6-8.5,5.9-11.6c-6.1-0.1-15.5,0-15-0.5l3.8-3.9c-6-1.6-12.1,0.3-16.6,1.7c-2-1.6,0-3.6,2.5-5.6
		c-5.1,0.7-9.7,1.9-13.9,3.5c-2.2-2,1.4-4,3.2-6c-7.9,1.5-11.2,3.6-14.5,5.7c-2.4-2.3-0.1-4.3,1.5-6.3c-5.9,2.2-9,5-12.2,7.8
		c-1.1-1.5-2.8-2.6-0.7-6.1c-4.2,2.4-7.4,5.3-9.7,8.5c-2.6-1.7-1.6-3.9-1.6-6c-4.4,3.6-7.2,7.4-10.6,11.1c-0.7-0.5-1.3-2.2-1.8-4.9
		c-10.5,10.1-25.2,35.7-3.8,45.8C246.8,104.5,268.5,93.5,292.7,85.3L292.7,85.3"/>
	<path class="st2" d="M247.9,291.9c0.1,18.9-16.4,34.4-37,34.5c-20.5,0.1-37.3-15.2-37.4-34.1c0-0.1,0-0.2,0-0.4
		c-0.1-18.9,16.4-34.4,37-34.5c20.5-0.1,37.3,15.2,37.4,34.1V291.9"/>
	<path class="st2" d="M189.2,194c15.4,10.1,18.2,33,6.2,51.1c-12,18.1-34.2,24.6-49.6,14.5c-15.4-10.1-18.2-33-6.2-51.1
		C151.6,190.4,173.8,183.9,189.2,194"/>
	<path class="st2" d="M230.8,192.2c-15.4,10.1-18.2,33-6.2,51.1c12,18.1,34.2,24.6,49.6,14.5c15.4-10.1,18.2-33,6.2-51.1
		C268.4,188.6,246.2,182.1,230.8,192.2"/>
	<path class="st2" d="M112.3,210.5c16.6-4.5,5.6,68.8-7.9,62.8C89.5,261.3,84.7,226.3,112.3,210.5"/>
	<path class="st2" d="M304.5,209.6c-16.6-4.5-5.6,68.8,7.9,62.8C327.3,260.4,332,225.3,304.5,209.6"/>
	<path class="st2" d="M247.9,155c28.7-4.8,52.6,12.2,51.6,43.3C298.6,210.3,237.4,156.8,247.9,155"/>
	<path class="st2" d="M168.6,154.1c-28.7-4.8-52.6,12.2-51.6,43.3C118,209.4,179.2,155.9,168.6,154.1"/>
	<path class="st2" d="M209.9,146.9c-17.1-0.4-33.6,12.7-33.6,20.3c0,9.3,13.5,18.8,33.7,19c20.6,0.1,33.8-7.6,33.8-17.2
		C243.9,158.2,225.1,146.7,209.9,146.9L209.9,146.9"/>
	<path class="st2" d="M210.9,337c14.9-0.7,35,4.8,35,12.1c0.2,7-18.2,22.9-36,22.6c-18.5,0.8-36.6-15.1-36.3-20.6
		C173.3,343,196.1,336.7,210.9,337"/>
	<path class="st2" d="M155.8,294.1c10.6,12.8,15.5,35.3,6.6,42c-8.4,5.1-28.8,3-43.3-17.8c-9.8-17.5-8.5-35.2-1.7-40.5
		C127.7,271.5,143.6,279.9,155.8,294.1L155.8,294.1"/>
	<path class="st2" d="M264,290c-11.5,13.5-17.9,38.1-9.5,46c8,6.1,29.6,5.3,45.5-16.8c11.6-14.8,7.7-39.6,1.1-46.2
		C291.2,265.5,277.1,275.2,264,290L264,290"/>
</g>
</svg>
