<?xml version="1.0" encoding="utf-8"?>
<!-- Generator: Adobe Illustrator 22.0.0, SVG Export Plug-In . SVG Version: 6.00 Build 0)  -->
<svg version="1.1" id="Layer_1" xmlns="http://www.w3.org/2000/svg" xmlns:xlink="http://www.w3.org/1999/xlink" x="0px" y="0px"
	 viewBox="0 0 415 420" style="enable-background:new 0 0 415 420;" xml:space="preserve">
<style type="text/css">
	.st0{opacity:4.000000e-02;fill:#222C37;}
	.st1{fill:#222C37;}
</style>
<circle class="st0" cx="206.5" cy="211.5" r="189.8"/>
<g>
	<path class="st1" d="M219.9,211.5l45.9-79.3l22.2,79.3l-22.2,79.3L219.9,211.5L219.9,211.5z M197.5,224.4l45.9,79.3l-80-20.5
		l-57.8-58.8H197.5L197.5,224.4z M243.4,119.3l-45.9,79.3h-91.8l57.8-58.8L243.4,119.3L243.4,119.3z M309,184.5L281,80.3
		l-104.5,27.9l-15.5,27.2l-31.4-0.2L53,211.5l76.5,76.3h0l31.4-0.2l15.5,27.2L281,342.7l28-104.2l-15.9-27L309,184.5L309,184.5z"/>
</g>
</svg>
